# xmcd
#
# Track frame offsets: 
#        170
#        15120
#        30320
#        46350
#        60652
#        74015
#        89725
#        102645
#        118740
#        137867
#        153990
#        168857
#        184055
#        199730
#        213307
#        226885
#
# Disc length: 3237 seconds
#
# Revision: 1
# Processed by: cddbd v1.5.2PL0 Copyright (c) Steve Scherf et al.
# Submitted via: ExactAudioCopy v1.1
#
DISCID=db0ca310
DTITLE=Евгений Куликов и группа "Куликово поле" - Антология
DYEAR=1994
DGENRE=Pop
TTITLE0=Бедные голуби
TTITLE1=Моя маленькая девочка
TTITLE2=Давай не будем
TTITLE3=Куликово поле
TTITLE4=Царь-батюшка
TTITLE5=Раньше так бывало
TTITLE6=Игрушечная война
TTITLE7=Город
TTITLE8=Господа, не бейте зеркала
TTITLE9=Как все
TTITLE10=День был плохим
TTITLE11=Куколка
TTITLE12=Я ухожу
TTITLE13=Неспетая песня
TTITLE14=Снежная королева
TTITLE15=16 лет
EXTD=
EXTT0=
EXTT1=
EXTT2=
EXTT3=
EXTT4=
EXTT5=
EXTT6=
EXTT7=
EXTT8=
EXTT9=
EXTT10=
EXTT11=
EXTT12=
EXTT13=
EXTT14=
EXTT15=
PLAYORDER=
